# This file uses meters as units for non-parametric coordinates.

mtllib Stairs.mtl
g default
v -400.000000 -200.000000 200.000000
v 400.000000 -200.000000 200.000000
v -400.000000 200.000000 200.000000
v 400.000000 200.000000 200.000000
v -400.000000 -200.000000 -200.000000
v 400.000000 -200.000000 -200.000000
vt 0.250000 0.250000
vt 0.249665 0.000000
vt 0.500000 0.249665
vt 0.251006 1.000000
vt 0.250670 0.750000
vt 0.500670 0.749665
vt 0.000670 0.750335
vt 0.000000 0.250335
vt 0.853553 0.249191
vt 0.854224 0.749191
vn 0.000000 0.000000 1.000000
vn 0.000000 0.000000 1.000000
vn 0.000000 0.000000 1.000000
vn 0.000000 0.000000 1.000000
vn 0.000000 0.707107 -0.707107
vn 0.000000 0.707107 -0.707107
vn 0.000000 0.707107 -0.707107
vn 0.000000 0.707107 -0.707107
vn 1.000000 0.000000 0.000000
vn 1.000000 0.000000 0.000000
vn 1.000000 0.000000 0.000000
vn -1.000000 0.000000 0.000000
vn -1.000000 0.000000 0.000000
vn -1.000000 0.000000 0.000000
vn 0.000000 -1.000000 0.000000
vn 0.000000 -1.000000 0.000000
vn 0.000000 -1.000000 0.000000
vn 0.000000 -1.000000 0.000000
s off
g Stairs
usemtl lambert25SG
f 1/5/1 2/1/2 4/3/3 3/6/4
f 3/6/5 4/3/6 6/9/7 5/10/8
f 2/1/9 6/2/10 4/3/11
f 5/4/12 1/5/13 3/6/14
f 5/7/15 6/8/16 2/1/17 1/5/18
