# This file uses meters as units for non-parametric coordinates.

mtllib TWall.mtl
g default
v 200.000000 -224.149994 300.000000
v 200.000000 -224.149994 -300.000000
v 200.000000 -174.149994 100.000000
v 200.000000 -174.149994 -100.000000
v 0.000000 -174.149994 100.000000
v 0.000000 -174.149994 -100.000000
v 0.000000 -224.149994 300.000000
v 0.000000 -224.149994 -300.000000
v 0.000000 -174.149994 -300.000000
v 200.000000 -174.149994 -300.000000
v 200.000000 -174.149994 300.000000
v 0.000000 -174.149994 300.000000
v 200.000000 -153.349991 100.000000
v 200.000000 -153.349991 -100.000000
v 0.000000 -153.349991 -100.000000
v 0.000000 -153.349991 100.000000
v 200.000000 224.149994 100.000000
v 200.000000 224.149994 -100.000000
v 0.000000 224.149994 -100.000000
v 0.000000 224.149994 100.000000
v 200.000000 199.106781 100.000000
v 0.000000 199.106781 100.000000
v 0.000000 199.106781 -100.000000
v 200.000000 199.106781 -100.000000
v 150.000000 -174.149994 100.000000
v 150.000000 -153.349991 100.000000
v 150.000000 199.106781 100.000000
v 150.000000 224.149780 100.000000
v 150.000000 224.149780 -100.000000
v 150.000000 199.106781 -100.000000
v 150.000000 -153.349991 -100.000000
v 50.000000 -174.149994 100.000000
v 50.000000 -153.349991 100.000000
v 50.000000 199.106781 100.000000
v 50.000000 224.149780 100.000000
v 50.000000 224.149780 -100.000000
v 50.000000 199.106781 -100.000000
v 50.000000 -153.349991 -100.000000
v 150.000000 -174.149994 -100.000000
v 50.000000 -174.149994 -100.000000
v 164.279724 75.741608 64.279716
v 164.279724 -29.984833 64.279716
v 150.000000 -29.984833 64.178940
v 150.000000 75.741608 64.178940
v 50.000000 -29.984833 64.178940
v 50.000000 75.741608 64.178940
v 35.720284 -29.984833 64.279716
v 35.720284 75.741608 64.279716
v 35.720284 -29.984833 -64.279716
v 35.720284 75.741608 -64.279716
v 50.000000 -29.984833 -64.178940
v 50.000000 75.741608 -64.178940
v 150.000000 -29.984833 -64.178940
v 150.000000 75.741608 -64.178940
v 164.279724 -29.984833 -64.279716
v 164.279724 75.741608 -64.279716
v 150.000000 -174.149994 300.000000
v 150.000000 -153.349991 300.000000
v 50.000000 -153.349991 300.000000
v 50.000000 -174.149994 300.000000
v 150.000000 199.106781 300.000000
v 50.000000 199.106781 300.000000
v 150.000000 224.149994 300.000000
v 50.000000 224.149994 300.000000
v 150.000000 75.741608 300.000000
v 150.000000 -29.984833 300.000000
v 50.000000 75.741608 300.000000
v 50.000000 -29.984833 300.000000
v 150.000000 224.149994 -300.000000
v 50.000000 224.149994 -300.000000
v 150.000000 199.106781 -300.000000
v 50.000000 199.106781 -300.000000
v 150.011536 -174.149994 -300.000000
v 49.976402 -174.149994 -300.000000
v 50.000000 -153.349991 -300.000000
v 150.000000 -153.349991 -300.000000
v 50.000000 75.741608 -300.000000
v 50.000000 -29.984833 -300.000000
v 150.000000 75.741608 -300.000000
v 150.000000 -29.984833 -300.000000
v -200.000000 -224.149994 100.000000
v -200.000000 -224.149994 -100.000000
v -200.000000 -174.149994 100.000000
v -200.000000 -174.149994 -100.000000
v 0.000000 -174.149994 50.000000
v 0.000000 -153.349991 50.000000
v 0.000000 199.106781 50.000000
v 0.000000 224.149994 50.000000
v 0.000000 -174.149994 -50.000000
v 0.000000 -153.349991 -50.000000
v 0.000000 199.106781 -50.000000
v 0.000000 224.149994 -50.000000
v 35.821060 -29.984833 50.000000
v 35.821060 75.741608 50.000000
v 35.821060 -29.984833 -50.000000
v 35.821060 75.741608 -50.000000
v -200.000000 -174.149994 50.000000
v -200.000000 -153.349991 50.000000
v -200.000000 -153.349991 -50.000000
v -200.000000 -174.149994 -50.000000
v -200.000000 199.106781 50.000000
v -200.000000 199.106781 -50.000000
v -200.000000 224.149994 50.000000
v -200.000000 224.149994 -50.000000
v -200.000000 75.741608 50.000000
v -200.000000 -29.984833 50.000000
v -200.000000 75.741608 -50.000000
v -200.000000 -29.984833 -50.000000
v 199.987198 -224.149994 100.065788
v 199.976410 -224.149994 -100.014511
v 0.021500 -224.149994 100.018692
v 0.027802 -224.149994 -100.113800
vt 0.720229 0.762610
vt 0.601508 0.797383
vt 0.673108 0.349028
vt 0.620299 0.460968
vt 0.545584 0.102639
vt 0.513108 0.615700
vt 0.754997 0.881406
vt 0.593892 0.516957
vt 0.526094 0.980630
vt 0.517375 0.950943
vt 0.398620 0.985704
vt 0.955856 0.228399
vt 0.536425 0.111696
vt 0.449831 0.023194
vt 0.408242 0.094502
vt 0.464047 0.151230
vt 0.417837 0.197271
vt 0.361737 0.140828
vt 0.377165 0.268995
vt 0.289884 0.181411
vt 0.278928 0.192356
vt 0.366187 0.279956
vt 0.011475 0.101998
vt 0.482642 0.832161
vt 0.363859 0.866912
vt 0.334161 0.875601
vt 0.920606 0.351020
vt 0.907742 0.350572
vt 0.912064 0.226868
vt 0.360231 0.964696
vt 0.830669 0.370056
vt 0.835761 0.224204
vt 0.765282 0.367775
vt 0.770366 0.221924
vt 0.689753 0.342970
vt 0.694064 0.219265
vt 0.674264 0.342430
vt 0.678575 0.218725
vt 0.918530 0.041311
vt 0.931395 0.041760
vt 0.927085 0.165463
vt 0.914220 0.165015
vt 0.843000 0.016506
vt 0.837918 0.162356
vt 0.777613 0.014224
vt 0.772523 0.160076
vt 0.700539 0.033708
vt 0.696221 0.157413
vt 0.685049 0.033167
vt 0.680732 0.156873
vt 0.792020 0.747256
vt 0.778003 0.740644
vt 0.830807 0.628692
vt 0.844825 0.635303
vt 0.699497 0.728117
vt 0.761755 0.596121
vt 0.640322 0.700206
vt 0.702572 0.568209
vt 0.580721 0.647597
vt 0.633517 0.535643
vt 0.569079 0.642106
vt 0.621873 0.530154
vt 0.910009 0.460763
vt 0.924027 0.467374
vt 0.871226 0.579328
vt 0.857208 0.572716
vt 0.850409 0.408154
vt 0.788154 0.540149
vt 0.791235 0.380243
vt 0.728971 0.512236
vt 0.712734 0.367716
vt 0.659916 0.479662
vt 0.701092 0.362225
vt 0.648275 0.474166
vt 0.566661 0.678598
vt 0.468703 0.674931
vt 0.147547 0.775318
vt 0.558127 0.648918
vt 0.447908 0.713342
vt 0.439061 0.683724
vt 0.133953 0.713583
vt 0.159291 0.770048
vt 0.203610 0.682328
vt 0.228946 0.738790
vt 0.263309 0.655538
vt 0.288645 0.712000
vt 0.332964 0.624280
vt 0.358302 0.680745
vt 0.347105 0.617935
vt 0.372442 0.674399
vt 0.268305 0.378571
vt 0.246297 0.356829
vt 0.256578 0.345308
vt 0.278722 0.367016
vt 0.196172 0.419054
vt 0.189899 0.412834
vt 0.143796 0.459187
vt 0.149992 0.465497
vt 0.108261 0.536664
vt 0.086718 0.514456
vt 0.169989 0.900916
vt 0.198222 0.888248
vt 0.042634 0.470554
vt 0.071533 0.605923
vt 0.043301 0.618592
vt 0.020999 0.448414
vt 0.093231 0.408637
vt 0.099501 0.414855
vt 0.139410 0.362194
vt 0.145605 0.368501
vt 0.202434 0.312833
vt 0.180564 0.290943
vt 0.212845 0.301357
vt 0.190983 0.279460
vt 0.256837 0.214026
vt 0.213047 0.257719
vt 0.344330 0.301738
vt 0.300442 0.345316
vt 0.545851 0.457420
vt 0.784695 0.872714
vt 0.758615 0.783607
vt 0.119316 0.787986
vt 0.122209 0.718852
vt 0.093978 0.731520
vt 0.454517 0.530872
vt 0.476067 0.508596
vt 0.411758 0.461113
vt 0.417206 0.454226
vt 0.361221 0.418968
vt 0.367360 0.412582
vt 0.311497 0.356255
vt 0.289554 0.378029
vt 0.180556 0.268212
vt 0.202464 0.246177
vt 0.139411 0.196851
vt 0.145650 0.190583
vt 0.099219 0.144428
vt 0.093033 0.150737
vt 0.020641 0.111076
vt 0.042275 0.088946
vt 0.086679 0.045239
vt 0.108225 0.023041
vt 0.149841 0.094334
vt 0.143598 0.100602
vt 0.196218 0.140448
vt 0.190029 0.146759
vt 0.246524 0.202530
vt 0.268524 0.180792
vt 0.377276 0.290593
vt 0.355477 0.312693
vt 0.418041 0.362501
vt 0.411739 0.368713
vt 0.458098 0.414999
vt 0.464284 0.408691
vt 0.536674 0.448354
vt 0.515042 0.470481
vt 0.083278 0.600652
vt 0.143863 0.549177
vt 0.203556 0.522392
vt 0.282285 0.511349
vt 0.296425 0.505004
vt 0.209966 0.882978
vt 0.288696 0.871937
vt 0.348389 0.845152
vt 0.408975 0.793679
vt 0.423115 0.787334
vt 0.924929 0.227318
vt 0.342851 0.905300
vt 0.749930 0.753922
vt 0.368922 0.994394
vt 0.958010 0.166540
vt 0.776006 0.843022
vt 0.460032 0.567261
vt 0.485369 0.623725
vt 0.956774 0.688102
vt 0.983174 0.632128
vt 0.554875 0.214410
vt 0.557032 0.152560
vt 0.077512 0.523505
vt 0.463593 0.539916
vt 0.099122 0.545681
vt 0.011832 0.457490
vt 0.962319 0.042839
vt 0.033491 0.479579
vt 0.033135 0.079918
vt 0.485217 0.517737
vt 0.541092 0.628906
vt 0.524171 0.479521
vt 0.099088 0.014021
vt 0.077475 0.036188
vt 0.458981 0.014148
vt 0.528498 0.657580
vt 0.141762 0.913596
vt 0.091084 0.800654
vt 0.065746 0.744189
vt 0.015065 0.631252
vt 0.645098 0.335875
vt 0.592313 0.447765
vt 0.988935 0.167617
vt 0.993244 0.043926
vt 0.565904 0.503757
vt 0.986781 0.229480
vt 0.636213 0.916159
vt 0.644898 0.945863
vt 0.982456 0.353147
vt 0.951530 0.352099
vn 0.000000 -1.000000 0.000000
vn 0.000000 -1.000000 0.000000
vn 0.000000 -1.000000 0.000000
vn 0.000000 -1.000000 0.000000
vn 0.000000 0.000000 -1.000000
vn 0.000000 0.000000 -1.000000
vn 0.000000 0.000000 -1.000000
vn 0.000000 0.000000 -1.000000
vn 0.000000 0.000000 1.000000
vn 0.000000 0.000000 1.000000
vn 0.000000 0.000000 1.000000
vn 0.000000 0.000000 1.000000
vn 0.000000 0.000000 1.000000
vn 0.000000 0.000000 1.000000
vn 0.000000 0.000000 1.000000
vn 0.000000 0.000000 1.000000
vn -1.000000 -0.000278 0.000070
vn -1.000000 -0.000278 0.000070
vn -1.000000 -0.000278 0.000070
vn -1.000000 -0.000278 0.000070
vn 1.000000 -0.000236 0.000059
vn 1.000000 -0.000236 0.000059
vn 1.000000 -0.000236 0.000059
vn 1.000000 -0.000236 0.000059
vn 1.000000 -0.000129 -0.000032
vn 1.000000 -0.000129 -0.000032
vn 1.000000 -0.000129 -0.000032
vn 1.000000 -0.000129 -0.000032
vn 0.000000 1.000000 0.000000
vn 0.000000 1.000000 0.000000
vn 0.000000 1.000000 0.000000
vn 0.000000 1.000000 0.000000
vn -1.000000 -0.000215 -0.000054
vn -1.000000 -0.000215 -0.000054
vn -1.000000 -0.000215 -0.000054
vn -1.000000 -0.000215 -0.000054
vn 0.000000 0.000000 -1.000000
vn 0.001163 0.214847 -0.976647
vn 0.001211 0.223709 -0.974655
vn 0.000000 0.000000 -1.000000
vn 0.000000 0.000000 1.000000
vn 0.000000 0.000000 1.000000
vn 0.000000 0.000000 1.000000
vn 0.000000 0.000000 1.000000
vn 0.000000 0.000000 -1.000000
vn 0.000000 0.000000 -1.000000
vn 0.000000 0.000000 -1.000000
vn 0.000000 0.000000 -1.000000
vn 0.000000 0.000000 -1.000000
vn 0.001164 -0.215041 -0.976604
vn 0.001111 -0.205224 -0.978715
vn 0.000000 0.000000 -1.000000
vn 0.001111 -0.205224 0.978715
vn 0.001164 -0.215041 0.976604
vn 0.000000 0.000000 1.000000
vn 0.000000 0.000000 1.000000
vn 0.000000 0.000000 1.000000
vn 0.000000 0.000000 1.000000
vn 0.001211 0.223709 0.974655
vn 0.001163 0.214847 0.976647
vn -0.001211 0.223709 0.974655
vn 0.000000 0.000000 1.000000
vn 0.000000 0.000000 1.000000
vn -0.001163 0.214847 0.976647
vn -0.000000 0.000000 1.000000
vn -0.001164 -0.215041 0.976604
vn -0.001111 -0.205224 0.978715
vn -0.000000 0.000000 1.000000
vn -0.001111 -0.205224 -0.978715
vn -0.001164 -0.215041 -0.976604
vn 0.000000 0.000000 -1.000000
vn 0.000000 0.000000 -1.000000
vn 0.000000 0.000000 -1.000000
vn 0.000000 0.000000 -1.000000
vn 0.000000 0.000000 -1.000000
vn 0.000000 0.000000 -1.000000
vn 0.000000 0.000000 -1.000000
vn -0.001211 0.223709 -0.974655
vn -0.001163 0.214847 -0.976647
vn 0.000000 0.000000 -1.000000
vn -0.002845 0.213716 0.976892
vn -0.002845 -0.213716 0.976892
vn -0.003017 -0.205291 0.978696
vn -0.003017 0.205291 0.978696
vn 0.000000 0.000000 1.000000
vn 0.000000 0.000000 1.000000
vn 0.000000 0.000000 1.000000
vn 0.000000 0.000000 1.000000
vn 0.003017 0.205291 0.978696
vn 0.003017 -0.205291 0.978696
vn 0.002845 -0.213716 0.976892
vn 0.002845 0.213716 0.976892
vn 0.002845 0.213716 -0.976892
vn 0.002845 -0.213716 -0.976892
vn 0.003017 -0.205291 -0.978696
vn 0.003017 0.205291 -0.978696
vn 0.000000 0.000000 -1.000000
vn 0.000000 0.000000 -1.000000
vn 0.000000 0.000000 -1.000000
vn 0.000000 0.000000 -1.000000
vn -0.003017 0.205291 -0.978696
vn -0.003017 -0.205291 -0.978696
vn -0.002845 -0.213716 -0.976892
vn -0.002845 0.213716 -0.976892
vn 1.000000 0.000000 0.000000
vn 1.000000 0.000000 0.000000
vn 1.000000 0.000000 0.000000
vn 1.000000 0.000000 0.000000
vn -1.000000 0.000000 0.000000
vn -1.000000 0.000000 0.000000
vn -1.000000 0.000000 0.000000
vn -1.000000 0.000000 0.000000
vn 1.000000 0.000000 0.000000
vn 1.000000 0.000000 0.000000
vn 1.000000 0.000000 0.000000
vn 1.000000 0.000000 0.000000
vn 0.000000 1.000000 -0.000001
vn 0.000000 1.000000 -0.000001
vn 0.000000 1.000000 -0.000001
vn 0.000000 1.000000 -0.000001
vn -1.000000 0.000000 0.000000
vn -1.000000 0.000000 0.000000
vn -1.000000 0.000000 0.000000
vn -1.000000 0.000000 0.000000
vn 1.000000 0.000000 0.000000
vn 1.000000 0.000000 0.000000
vn 1.000000 0.000000 0.000000
vn 1.000000 0.000000 0.000000
vn -1.000000 0.000000 0.000000
vn -1.000000 0.000000 0.000000
vn -1.000000 0.000000 0.000000
vn -1.000000 0.000000 0.000000
vn 0.000000 1.000000 0.000001
vn 0.000000 1.000000 0.000001
vn 0.000000 1.000000 0.000001
vn 0.000000 1.000000 0.000001
vn 1.000000 0.000000 0.000000
vn 1.000000 0.000000 0.000000
vn 1.000000 0.000000 0.000000
vn 1.000000 0.000000 0.000000
vn -1.000000 0.000000 0.000000
vn -1.000000 0.000000 0.000000
vn -1.000000 0.000000 0.000000
vn -1.000000 0.000000 0.000000
vn -1.000000 0.000567 0.000059
vn -1.000000 0.000066 0.000007
vn -1.000000 0.000076 0.000008
vn -1.000000 0.000567 0.000059
vn 1.000000 0.000032 0.000003
vn 1.000000 0.000277 0.000029
vn 1.000000 0.000277 0.000029
vn 1.000000 0.000037 0.000004
vn -1.000000 0.000000 0.000000
vn -1.000000 0.000000 0.000000
vn -1.000000 0.000000 0.000000
vn -1.000000 0.000000 0.000000
vn 1.000000 0.000000 0.000000
vn 1.000000 0.000000 0.000000
vn 1.000000 0.000000 0.000000
vn 1.000000 0.000000 0.000000
vn 0.000000 1.000000 0.000000
vn 0.000000 1.000000 0.000000
vn 0.000000 1.000000 0.000000
vn 0.000000 1.000000 0.000000
vn 0.000000 1.000000 0.000000
vn 0.000000 1.000000 0.000000
vn 0.000000 1.000000 0.000000
vn 0.000000 1.000000 0.000000
vn 0.000000 1.000000 0.000000
vn 0.000000 1.000000 0.000000
vn 0.000000 1.000000 0.000000
vn 0.000000 1.000000 0.000000
vn 0.000000 -1.000000 0.000000
vn 0.000000 -1.000000 0.000000
vn 0.000000 -1.000000 0.000000
vn 0.000000 -1.000000 0.000000
vn -1.000000 0.000000 0.000000
vn -1.000000 0.000000 0.000000
vn -1.000000 0.000000 0.000000
vn -1.000000 0.000000 0.000000
vn -1.000000 0.000000 0.000000
vn -1.000000 0.000000 0.000000
vn -1.000000 0.000000 0.000000
vn -1.000000 0.000000 0.000000
vn -0.000047 0.000187 1.000000
vn -0.000047 0.000187 1.000000
vn -0.000047 0.000187 1.000000
vn -0.000047 0.000187 1.000000
vn 0.000000 1.000000 0.000000
vn 0.000000 1.000000 0.000000
vn 0.000000 1.000000 0.000000
vn 0.000000 1.000000 0.000000
vn -0.000285 0.001138 -0.999999
vn -0.000285 0.001138 -0.999999
vn -0.000285 0.001138 -0.999999
vn -0.000285 0.001138 -0.999999
vn -1.000000 0.000000 0.000000
vn -1.000000 0.000000 0.000000
vn -1.000000 0.000000 0.000000
vn -1.000000 0.000000 0.000000
vn -0.978715 -0.205223 0.001111
vn -0.976604 -0.215041 0.001164
vn -1.000000 0.000000 0.000000
vn -1.000000 0.000000 0.000000
vn -1.000000 0.000000 0.000000
vn -1.000000 0.000000 0.000000
vn -0.974655 0.223709 0.001211
vn -0.976647 0.214847 0.001163
vn -0.974655 0.223709 -0.001211
vn -1.000000 0.000000 0.000000
vn -1.000000 0.000000 0.000000
vn -0.976647 0.214847 -0.001163
vn -1.000000 0.000000 0.000000
vn -0.976604 -0.215041 -0.001164
vn -0.978715 -0.205223 -0.001111
vn -1.000000 0.000000 0.000000
vn -0.976892 0.213716 -0.002845
vn -0.976892 -0.213716 -0.002845
vn -0.978696 -0.205291 -0.003017
vn -0.978696 0.205291 -0.003017
vn -1.000000 0.000000 0.000000
vn -1.000000 0.000000 0.000000
vn -1.000000 0.000000 0.000000
vn -1.000000 0.000000 0.000000
vn -0.978696 0.205291 0.003017
vn -0.978696 -0.205291 0.003017
vn -0.976892 -0.213716 0.002845
vn -0.976892 0.213716 0.002845
vn 0.000000 0.000000 1.000000
vn 0.000000 0.000000 1.000000
vn 0.000000 0.000000 1.000000
vn 0.000000 0.000000 1.000000
vn 0.000000 0.000000 -1.000000
vn 0.000000 0.000000 -1.000000
vn 0.000000 0.000000 -1.000000
vn 0.000000 0.000000 -1.000000
vn 0.000000 0.000000 1.000000
vn 0.000000 0.000000 1.000000
vn 0.000000 0.000000 1.000000
vn 0.000000 0.000000 1.000000
vn 0.000000 1.000000 0.000000
vn 0.000000 1.000000 0.000000
vn 0.000000 1.000000 0.000000
vn 0.000000 1.000000 0.000000
vn 0.000000 0.000000 -1.000000
vn 0.000000 0.000000 -1.000000
vn 0.000000 0.000000 -1.000000
vn 0.000000 0.000000 -1.000000
vn 0.000000 0.000000 1.000000
vn 0.000000 0.000000 1.000000
vn 0.000000 0.000000 1.000000
vn 0.000000 0.000000 1.000000
vn 0.000000 0.000000 -1.000000
vn 0.000000 0.000000 -1.000000
vn 0.000000 0.000000 -1.000000
vn 0.000000 0.000000 -1.000000
vn 0.000000 1.000000 0.000000
vn 0.000000 1.000000 0.000000
vn 0.000000 1.000000 0.000000
vn 0.000000 1.000000 0.000000
vn 0.000001 1.000000 -0.000001
vn 0.000001 1.000000 -0.000001
vn 0.000004 1.000000 0.000000
vn -0.000000 1.000000 0.000000
vn 0.000000 1.000000 0.000002
vn -0.000004 1.000000 0.000000
vn -0.000001 1.000000 -0.000002
vn -0.000001 1.000000 -0.000002
vn 0.000000 1.000000 0.000001
vn 0.000000 -1.000000 -0.000000
vn 0.000000 -1.000000 -0.000000
vn 0.000000 -1.000000 -0.000000
vn 0.000000 -1.000000 -0.000000
vn 0.000000 -1.000000 0.000000
vn 0.000000 -1.000000 0.000000
vn 0.000000 0.000000 -1.000000
vn 0.000000 0.000000 -1.000000
vn 0.000000 0.000000 1.000000
vn 0.000000 0.000000 1.000000
vn -1.000000 0.000000 0.000000
vn -1.000000 0.000000 0.000000
vn 1.000000 -0.000364 -0.000027
vn 1.000000 -0.000364 -0.000027
vn 1.000000 -0.000364 -0.000027
vn 1.000000 -0.000364 -0.000027
vn 1.000000 0.000000 0.000000
vn 1.000000 0.000000 0.000000
vn 1.000000 0.000000 0.000000
vn 1.000000 0.000000 0.000000
vn 0.960545 0.278125 0.000000
vn 0.960545 0.278125 0.000000
vn 0.960545 0.278125 0.000000
vn 0.960545 0.278125 0.000000
vn 1.000000 0.000000 0.000000
vn 1.000000 0.000000 0.000000
vn 1.000000 0.000000 0.000000
vn 1.000000 0.000000 0.000000
vn 0.960545 -0.278125 0.000000
vn 0.960545 -0.278125 0.000000
vn 0.960545 -0.278125 0.000000
vn 0.960545 -0.278125 0.000000
vn 1.000000 0.000000 0.000000
vn 1.000000 0.000000 0.000000
vn 1.000000 0.000000 0.000000
vn 1.000000 0.000000 0.000000
vn 0.000001 1.000000 0.000002
s off
g TWall
usemtl lambert22SG
f 2/7/1 110/203/2 112/2/3 8/1/4
s 1
f 2/7/5 74/121/6 73/172/7 10/120/8
s 2
f 7/25/9 57/30/10 60/168/11 12/26/12
s 3
f 57/167/13 58/29/14 59/42/15 60/41/16
s off
f 8/198/17 112/197/18 6/3/19 9/4/20
f 4/187/21 110/6/22 2/201/23 10/8/24
f 1/202/25 109/205/26 3/206/27 11/12/28
f 60/41/29 32/40/30 5/183/31 12/171/32
f 5/183/33 111/200/34 7/199/35 12/171/36
s 4
f 6/180/37 15/125/38 38/126/39 40/186/40
s 3
f 62/48/41 61/36/42 63/38/43 64/50/44
s 6
f 70/65/45 69/54/46 71/53/47 72/66/48
s 4
f 36/118/49 37/131/50 23/132/51 19/94/52
s 8
f 22/133/53 34/134/54 35/116/55 20/114/56
f 5/23/57 32/185/58 33/140/59 16/139/60
s 10
f 26/141/61 25/190/62 3/189/63 13/142/64
f 28/115/65 27/147/66 21/148/67 17/21/68
s 12
f 24/149/69 30/150/70 29/117/71 18/22/72
s 6
f 73/62/73 74/74/74 75/72/75 76/60/76
s 12
f 39/188/77 31/156/78 14/155/79 4/119/80
s 10
f 42/143/81 41/145/82 44/146/83 43/144/84
s 3
f 66/32/85 65/34/86 67/46/87 68/44/88
s 8
f 45/137/89 46/136/90 48/135/91 47/138/92
s 4
f 49/127/93 50/129/94 52/130/95 51/128/96
s 6
f 78/70/97 77/68/98 79/56/99 80/58/100
s 12
f 53/153/101 54/152/102 56/151/103 55/154/104
s 6
f 78/70/97 80/58/100 76/60/76 75/72/75
s 3
f 59/42/15 58/29/14 66/32/85 68/44/88
s 4
f 49/127/93 51/128/96 38/126/39 15/125/38
s 8
f 16/139/60 33/140/59 45/137/89 47/138/92
s 10
f 42/143/81 43/144/84 26/141/61 13/142/64
s 12
f 14/155/79 31/156/78 53/153/101 55/154/104
s 10
f 27/147/66 44/146/83 41/145/82 21/148/67
s 3
f 67/46/87 65/34/86 61/36/42 62/48/41
s 8
f 48/135/91 46/136/90 34/134/54 22/133/53
s 4
f 37/131/50 52/130/95 50/129/94 23/132/51
s 6
f 71/53/47 79/56/99 77/68/98 72/66/48
s 12
f 56/151/103 54/152/102 30/150/70 24/149/69
s 15
f 25/27/105 26/28/106 58/29/107 57/167/108
s 16
f 33/39/109 32/40/110 60/41/111 59/42/112
s 15
f 27/35/113 28/37/114 63/38/115 61/36/116
s off
f 28/177/117 35/178/118 64/50/119 63/38/120
s 16
f 35/49/121 34/47/122 62/48/123 64/50/124
s 15
f 43/31/125 44/33/126 65/34/127 66/32/128
s 16
f 46/45/129 45/43/130 68/44/131 67/46/132
s 15
f 26/28/106 43/31/125 66/32/128 58/29/107
s 16
f 45/43/130 33/39/109 59/42/112 68/44/131
s 15
f 44/33/126 27/35/113 61/36/116 65/34/127
s 16
f 34/47/122 46/45/129 67/46/132 62/48/123
s off
f 36/176/133 29/175/134 69/54/135 70/65/136
s 19
f 29/51/137 30/52/138 71/53/139 69/54/140
s 20
f 37/63/141 36/64/142 70/65/143 72/66/144
f 40/73/145 38/71/146 75/72/147 74/74/148
s 19
f 31/59/149 39/61/150 73/62/151 76/60/152
s 20
f 51/69/153 52/67/154 77/68/155 78/70/156
s 19
f 54/55/157 53/57/158 80/58/159 79/56/160
f 53/57/158 31/59/149 76/60/152 80/58/159
s 20
f 38/71/146 51/69/153 78/70/156 75/72/147
s 19
f 30/52/138 54/55/157 79/56/160 71/53/139
s 20
f 52/67/154 37/63/141 72/66/144 77/68/155
s off
f 25/27/161 57/167/162 11/12/163 3/206/164
f 4/187/165 10/8/166 73/62/167 39/61/168
f 9/4/169 6/3/170 40/73/171 74/74/172
s 23
f 110/203/173 109/10/174 111/24/175 112/2/176
s 24
f 82/75/177 97/76/178 100/192/179 84/78/180
s 25
f 97/123/181 98/81/182 99/82/183 100/77/184
s off
f 81/195/185 111/196/186 5/105/187 83/124/188
f 100/77/189 89/102/190 6/101/191 84/122/192
f 6/101/193 112/193/194 82/194/195 84/122/196
s 25
f 102/88/197 101/87/198 103/89/199 104/90/200
s 27
f 23/91/201 91/92/202 92/93/203 19/94/204
f 6/181/205 89/179/206 90/100/207 15/99/208
s 29
f 86/103/209 85/184/210 5/182/211 16/106/212
f 88/113/213 87/111/214 22/112/215 20/114/216
f 47/107/217 48/109/218 94/110/219 93/108/220
s 25
f 106/83/221 105/85/222 107/86/223 108/84/224
s 27
f 95/97/225 96/96/226 50/95/227 49/98/228
s 25
f 99/82/183 98/81/182 106/83/221 108/84/224
s 27
f 15/99/208 90/100/207 95/97/225 49/98/228
s 29
f 47/107/217 93/108/220 86/103/209 16/106/212
f 87/111/214 94/110/219 48/109/218 22/112/215
s 25
f 107/86/223 105/85/222 101/87/198 102/88/197
s 27
f 50/95/227 96/96/226 91/92/202 23/91/201
s 31
f 85/104/229 86/157/230 98/81/231 97/123/232
s 32
f 90/162/233 89/102/234 100/77/235 99/82/236
s 31
f 87/160/237 88/161/238 103/89/239 101/87/240
s off
f 88/173/241 92/174/242 104/90/243 103/89/244
s 32
f 92/166/245 91/165/246 102/88/247 104/90/248
s 31
f 93/158/249 94/159/250 105/85/251 106/83/252
s 32
f 96/164/253 95/163/254 108/84/255 107/86/256
s 31
f 86/157/230 93/158/249 106/83/252 98/81/231
s 32
f 95/163/254 90/162/233 99/82/236 108/84/255
s 31
f 94/159/250 87/160/237 101/87/240 105/85/251
s 32
f 91/165/246 96/164/253 107/86/256 102/88/247
s off
f 85/104/257 97/123/258 83/124/259 5/105/260
s 35
f 92/93/261 36/118/262 19/94/263
f 18/22/264 28/115/265 17/21/266
f 29/117/267 88/113/268 20/114/269 18/22/264
f 29/117/267 36/118/262 92/93/261 88/113/268
s off
f 111/24/270 109/10/271 1/11/272 7/25/273
s 23
f 112/2/176 111/24/175 81/79/274 82/75/275
s 1
f 9/169/276 74/121/6 2/7/5 8/1/277
s 2
f 1/11/278 11/170/279 57/30/10 7/25/9
s 24
f 81/79/280 83/80/281 97/76/178 82/75/177
s off
f 3/9/282 109/10/283 110/203/284 4/204/285
f 4/5/286 14/13/287 13/14/288 3/191/289
f 42/15/290 13/14/291 14/13/292 55/16/293
f 55/16/294 56/17/295 41/18/296 42/15/297
f 56/17/298 24/19/299 21/20/300 41/18/301
f 17/21/302 21/20/303 24/19/304 18/22/305
s 35
f 18/22/264 20/114/269 35/116/306 28/115/265
